<mxfile host="Electron" agent="Mozilla/5.0 (X11; Linux x86_64) AppleWebKit/537.36 (KHTML, like Gecko) draw.io/26.0.4 Chrome/128.0.6613.186 Electron/32.2.5 Safari/537.36" version="26.0.4">
  <diagram name="Page-1" id="rbWcTFTMcn3XMUnObQgA">
    <mxGraphModel dx="4741" dy="4609" grid="1" gridSize="10" guides="1" tooltips="1" connect="1" arrows="1" fold="1" page="1" pageScale="1" pageWidth="850" pageHeight="1100" math="0" shadow="0">
      <root>
        <mxCell id="0" />
        <mxCell id="1" parent="0" />
        <mxCell id="Pn77C8ZhWg7w9hyfyND1-21" value="&lt;font style=&quot;font-size: 20px;&quot;&gt;&lt;b&gt;LeafFC&lt;/b&gt;&lt;/font&gt;" style="rounded=1;whiteSpace=wrap;html=1;" parent="1" vertex="1">
          <mxGeometry x="1390" y="-280" width="190" height="90" as="geometry" />
        </mxCell>
        <mxCell id="Pn77C8ZhWg7w9hyfyND1-54" value="&lt;font style=&quot;font-size: 20px;&quot;&gt;&lt;b&gt;LeafFC&lt;/b&gt;&lt;/font&gt;" style="rounded=1;whiteSpace=wrap;html=1;" parent="1" vertex="1">
          <mxGeometry x="1400" y="-270" width="190" height="90" as="geometry" />
        </mxCell>
        <mxCell id="Pn77C8ZhWg7w9hyfyND1-55" value="&lt;font style=&quot;font-size: 20px;&quot;&gt;&lt;b&gt;LeafFC&lt;/b&gt;&lt;/font&gt;" style="rounded=1;whiteSpace=wrap;html=1;" parent="1" vertex="1">
          <mxGeometry x="1410" y="-260" width="190" height="90" as="geometry" />
        </mxCell>
        <mxCell id="Pn77C8ZhWg7w9hyfyND1-56" value="&lt;font style=&quot;font-size: 20px;&quot;&gt;&lt;b&gt;LeafFC&lt;/b&gt;&lt;/font&gt;" style="rounded=1;whiteSpace=wrap;html=1;" parent="1" vertex="1">
          <mxGeometry x="1420" y="-250" width="190" height="90" as="geometry" />
        </mxCell>
        <mxCell id="Pn77C8ZhWg7w9hyfyND1-89" value="" style="group" parent="1" vertex="1" connectable="0">
          <mxGeometry x="-100" y="-430" width="2230" height="1078.2193150684932" as="geometry" />
        </mxCell>
        <mxCell id="Pn77C8ZhWg7w9hyfyND1-1" value="" style="rounded=0;whiteSpace=wrap;html=1;" parent="Pn77C8ZhWg7w9hyfyND1-89" vertex="1">
          <mxGeometry y="56.99" width="2230" height="983.01" as="geometry" />
        </mxCell>
        <mxCell id="Pn77C8ZhWg7w9hyfyND1-2" value="&lt;font style=&quot;font-size: 24px;&quot;&gt;&lt;b&gt;Flight Stack&lt;/b&gt;&lt;/font&gt;" style="text;html=1;align=left;verticalAlign=middle;whiteSpace=wrap;rounded=0;" parent="Pn77C8ZhWg7w9hyfyND1-89" vertex="1">
          <mxGeometry width="2120" height="42.73972602739726" as="geometry" />
        </mxCell>
        <mxCell id="Pn77C8ZhWg7w9hyfyND1-9" value="" style="group;rounded=1;" parent="Pn77C8ZhWg7w9hyfyND1-89" vertex="1" connectable="0">
          <mxGeometry x="884.6" y="128.22" width="1265.4" height="854.79" as="geometry" />
        </mxCell>
        <mxCell id="Pn77C8ZhWg7w9hyfyND1-3" value="" style="rounded=0;whiteSpace=wrap;html=1;" parent="Pn77C8ZhWg7w9hyfyND1-9" vertex="1">
          <mxGeometry y="77.70818181818183" width="1265.4" height="777.0818181818181" as="geometry" />
        </mxCell>
        <mxCell id="Pn77C8ZhWg7w9hyfyND1-19" value="&lt;span style=&quot;font-size: 20px;&quot;&gt;&lt;b&gt;Real-Time AI&lt;/b&gt;&lt;/span&gt;" style="rounded=1;whiteSpace=wrap;html=1;" parent="Pn77C8ZhWg7w9hyfyND1-9" vertex="1">
          <mxGeometry x="785.4000000000001" y="121.77999999999997" width="150" height="90" as="geometry" />
        </mxCell>
        <mxCell id="Pn77C8ZhWg7w9hyfyND1-22" value="&lt;font style=&quot;font-size: 20px;&quot;&gt;&lt;b&gt;MAVLINK&lt;/b&gt;&lt;/font&gt;&lt;div&gt;&lt;font style=&quot;font-size: 20px;&quot;&gt;&lt;b&gt;Router&lt;/b&gt;&lt;/font&gt;&lt;/div&gt;" style="rounded=1;whiteSpace=wrap;html=1;" parent="Pn77C8ZhWg7w9hyfyND1-9" vertex="1">
          <mxGeometry x="64.11" y="160.87" width="324.9" height="176.03" as="geometry" />
        </mxCell>
        <mxCell id="Pn77C8ZhWg7w9hyfyND1-24" value="&lt;font style=&quot;font-size: 20px;&quot;&gt;&lt;b&gt;SIYI SDK&lt;/b&gt;&lt;/font&gt;" style="rounded=1;whiteSpace=wrap;html=1;" parent="Pn77C8ZhWg7w9hyfyND1-9" vertex="1">
          <mxGeometry x="111.55999999999999" y="611.7809090909091" width="230" height="90" as="geometry" />
        </mxCell>
        <mxCell id="Pn77C8ZhWg7w9hyfyND1-154" value="" style="group" parent="Pn77C8ZhWg7w9hyfyND1-9" vertex="1" connectable="0">
          <mxGeometry x="490.4" y="281.78" width="730" height="500" as="geometry" />
        </mxCell>
        <mxCell id="Pn77C8ZhWg7w9hyfyND1-97" value="" style="rounded=1;whiteSpace=wrap;html=1;strokeColor=default;align=center;verticalAlign=middle;fontFamily=Helvetica;fontSize=12;fontColor=default;fillColor=default;" parent="Pn77C8ZhWg7w9hyfyND1-154" vertex="1">
          <mxGeometry y="64.06" width="720" height="435.94" as="geometry" />
        </mxCell>
        <mxCell id="Pn77C8ZhWg7w9hyfyND1-98" value="LeafDuino" style="text;html=1;align=left;verticalAlign=middle;whiteSpace=wrap;rounded=0;fontFamily=Helvetica;fontSize=20;fontColor=default;fontStyle=1" parent="Pn77C8ZhWg7w9hyfyND1-154" vertex="1">
          <mxGeometry width="697.5" height="64.05901193827042" as="geometry" />
        </mxCell>
        <mxCell id="Pn77C8ZhWg7w9hyfyND1-101" value="" style="group" parent="Pn77C8ZhWg7w9hyfyND1-154" vertex="1" connectable="0">
          <mxGeometry x="-10" y="82.5" width="740" height="387.5" as="geometry" />
        </mxCell>
        <mxCell id="Pn77C8ZhWg7w9hyfyND1-41" value="" style="rounded=1;whiteSpace=wrap;html=1;strokeColor=default;align=center;verticalAlign=middle;fontFamily=Helvetica;fontSize=12;fontColor=default;fillColor=default;" parent="Pn77C8ZhWg7w9hyfyND1-101" vertex="1">
          <mxGeometry x="57.812499999999986" y="100.72247869318193" width="624.3749999999997" height="250.99431818181822" as="geometry" />
        </mxCell>
        <mxCell id="Pn77C8ZhWg7w9hyfyND1-43" value="&lt;b&gt;&lt;font style=&quot;font-size: 20px;&quot;&gt;LeafSDK&lt;/font&gt;&lt;/b&gt;" style="text;html=1;align=left;verticalAlign=middle;whiteSpace=wrap;rounded=0;fontFamily=Helvetica;fontSize=12;fontColor=default;" parent="Pn77C8ZhWg7w9hyfyND1-101" vertex="1">
          <mxGeometry x="57.812499999999986" y="61.09179687500008" width="624.3749999999997" height="39.63068181818183" as="geometry" />
        </mxCell>
        <mxCell id="Pn77C8ZhWg7w9hyfyND1-46" value="&lt;font style=&quot;font-size: 14px;&quot;&gt;Gimbal Stabilization&lt;/font&gt;" style="text;strokeColor=none;fillColor=none;align=left;verticalAlign=middle;spacingLeft=4;spacingRight=4;overflow=hidden;points=[[0,0.5],[1,0.5]];portConstraint=eastwest;rotatable=0;whiteSpace=wrap;html=1;fontFamily=Helvetica;fontSize=12;fontColor=default;" parent="Pn77C8ZhWg7w9hyfyND1-101" vertex="1">
          <mxGeometry x="57.812499999999986" y="126.15216619318191" width="624.3749999999997" height="39.63068181818183" as="geometry" />
        </mxCell>
        <mxCell id="Pn77C8ZhWg7w9hyfyND1-47" value="&lt;font style=&quot;font-size: 14px;&quot;&gt;Object Tracking&lt;/font&gt;" style="text;strokeColor=none;fillColor=none;align=left;verticalAlign=middle;spacingLeft=4;spacingRight=4;overflow=hidden;points=[[0,0.5],[1,0.5]];portConstraint=eastwest;rotatable=0;whiteSpace=wrap;html=1;fontFamily=Helvetica;fontSize=12;fontColor=default;" parent="Pn77C8ZhWg7w9hyfyND1-101" vertex="1">
          <mxGeometry x="57.812499999999986" y="165.78284801136365" width="624.3749999999997" height="39.63068181818183" as="geometry" />
        </mxCell>
        <mxCell id="Pn77C8ZhWg7w9hyfyND1-48" value="&lt;font style=&quot;font-size: 14px;&quot;&gt;Waypoint Mission (GPS, Indoor, Vision)&lt;/font&gt;" style="text;strokeColor=none;fillColor=none;align=left;verticalAlign=middle;spacingLeft=4;spacingRight=4;overflow=hidden;points=[[0,0.5],[1,0.5]];portConstraint=eastwest;rotatable=0;whiteSpace=wrap;html=1;fontFamily=Helvetica;fontSize=12;fontColor=default;" parent="Pn77C8ZhWg7w9hyfyND1-101" vertex="1">
          <mxGeometry x="57.812499999999986" y="205.4135298295455" width="624.3749999999997" height="39.63068181818183" as="geometry" />
        </mxCell>
        <mxCell id="Pn77C8ZhWg7w9hyfyND1-52" value="&lt;font style=&quot;font-size: 14px;&quot;&gt;Vision Landing&lt;/font&gt;" style="text;strokeColor=none;fillColor=none;align=left;verticalAlign=middle;spacingLeft=4;spacingRight=4;overflow=hidden;points=[[0,0.5],[1,0.5]];portConstraint=eastwest;rotatable=0;whiteSpace=wrap;html=1;fontFamily=Helvetica;fontSize=12;fontColor=default;" parent="Pn77C8ZhWg7w9hyfyND1-101" vertex="1">
          <mxGeometry x="57.812499999999986" y="245.04751420454537" width="624.3749999999997" height="39.63068181818183" as="geometry" />
        </mxCell>
        <mxCell id="Pn77C8ZhWg7w9hyfyND1-53" value="&lt;font style=&quot;font-size: 14px;&quot;&gt;Precision Landing&lt;/font&gt;" style="text;strokeColor=none;fillColor=none;align=left;verticalAlign=middle;spacingLeft=4;spacingRight=4;overflow=hidden;points=[[0,0.5],[1,0.5]];portConstraint=eastwest;rotatable=0;whiteSpace=wrap;html=1;fontFamily=Helvetica;fontSize=12;fontColor=default;" parent="Pn77C8ZhWg7w9hyfyND1-101" vertex="1">
          <mxGeometry x="57.812499999999986" y="284.6814985795454" width="624.3749999999997" height="39.63068181818183" as="geometry" />
        </mxCell>
        <mxCell id="Pn77C8ZhWg7w9hyfyND1-157" style="edgeStyle=orthogonalEdgeStyle;rounded=0;orthogonalLoop=1;jettySize=auto;html=1;exitX=1;exitY=0.5;exitDx=0;exitDy=0;fontFamily=Helvetica;fontSize=12;fontColor=default;startArrow=classic;startFill=1;endArrow=classic;endFill=1;dashed=1;dashPattern=8 8;entryX=0;entryY=0.153;entryDx=0;entryDy=0;entryPerimeter=0;" parent="Pn77C8ZhWg7w9hyfyND1-9" source="Pn77C8ZhWg7w9hyfyND1-91" target="Pn77C8ZhWg7w9hyfyND1-47" edge="1">
          <mxGeometry relative="1" as="geometry">
            <mxPoint x="341.55999999999983" y="553.2809090909088" as="sourcePoint" />
            <mxPoint x="538.4" y="531.78" as="targetPoint" />
            <Array as="points" />
          </mxGeometry>
        </mxCell>
        <mxCell id="Pn77C8ZhWg7w9hyfyND1-160" style="edgeStyle=orthogonalEdgeStyle;rounded=0;orthogonalLoop=1;jettySize=auto;html=1;exitX=0.5;exitY=1;exitDx=0;exitDy=0;fontFamily=Helvetica;fontSize=12;fontColor=default;dashed=1;dashPattern=8 8;" parent="Pn77C8ZhWg7w9hyfyND1-9" source="Pn77C8ZhWg7w9hyfyND1-91" target="Pn77C8ZhWg7w9hyfyND1-24" edge="1">
          <mxGeometry relative="1" as="geometry" />
        </mxCell>
        <mxCell id="Pn77C8ZhWg7w9hyfyND1-91" value="&lt;font style=&quot;font-size: 20px;&quot;&gt;&lt;b&gt;Gimbal Controller&lt;/b&gt;&lt;/font&gt;" style="rounded=1;whiteSpace=wrap;html=1;" parent="Pn77C8ZhWg7w9hyfyND1-9" vertex="1">
          <mxGeometry x="111.55999999999995" y="491.78090909090906" width="230" height="90" as="geometry" />
        </mxCell>
        <mxCell id="Pn77C8ZhWg7w9hyfyND1-162" style="edgeStyle=orthogonalEdgeStyle;rounded=0;orthogonalLoop=1;jettySize=auto;html=1;entryX=0.006;entryY=0.724;entryDx=0;entryDy=0;entryPerimeter=0;fontFamily=Helvetica;fontSize=12;fontColor=default;dashed=1;dashPattern=8 8;startArrow=classic;startFill=1;" parent="Pn77C8ZhWg7w9hyfyND1-9" edge="1">
          <mxGeometry relative="1" as="geometry">
            <mxPoint x="341.4" y="656.78" as="sourcePoint" />
            <mxPoint x="537.9587500000001" y="656.654112215909" as="targetPoint" />
          </mxGeometry>
        </mxCell>
        <mxCell id="Pn77C8ZhWg7w9hyfyND1-57" value="&lt;font style=&quot;font-size: 20px;&quot;&gt;&lt;b&gt;LeafLLM&lt;/b&gt;&lt;/font&gt;" style="rounded=1;whiteSpace=wrap;html=1;" parent="Pn77C8ZhWg7w9hyfyND1-9" vertex="1">
          <mxGeometry x="955.4" y="121.77999999999997" width="150" height="90" as="geometry" />
        </mxCell>
        <mxCell id="Pn77C8ZhWg7w9hyfyND1-167" style="edgeStyle=orthogonalEdgeStyle;rounded=0;orthogonalLoop=1;jettySize=auto;html=1;exitX=1;exitY=0.5;exitDx=0;exitDy=0;fontFamily=Helvetica;fontSize=12;fontColor=default;dashed=1;dashPattern=8 8;startArrow=classic;startFill=1;" parent="Pn77C8ZhWg7w9hyfyND1-9" source="Pn77C8ZhWg7w9hyfyND1-22" edge="1">
          <mxGeometry relative="1" as="geometry">
            <mxPoint x="765.4" y="461.78" as="targetPoint" />
          </mxGeometry>
        </mxCell>
        <mxCell id="Pn77C8ZhWg7w9hyfyND1-168" style="edgeStyle=orthogonalEdgeStyle;rounded=0;orthogonalLoop=1;jettySize=auto;html=1;exitX=0.5;exitY=1;exitDx=0;exitDy=0;fontFamily=Helvetica;fontSize=12;fontColor=default;dashed=1;dashPattern=8 8;startArrow=classic;startFill=1;" parent="Pn77C8ZhWg7w9hyfyND1-9" source="Pn77C8ZhWg7w9hyfyND1-19" edge="1">
          <mxGeometry relative="1" as="geometry">
            <mxPoint x="859.4" y="461.78" as="targetPoint" />
          </mxGeometry>
        </mxCell>
        <mxCell id="Pn77C8ZhWg7w9hyfyND1-169" style="edgeStyle=orthogonalEdgeStyle;rounded=0;orthogonalLoop=1;jettySize=auto;html=1;exitX=0.5;exitY=1;exitDx=0;exitDy=0;fontFamily=Helvetica;fontSize=12;fontColor=default;dashed=1;dashPattern=8 8;startArrow=classic;startFill=1;" parent="Pn77C8ZhWg7w9hyfyND1-9" edge="1">
          <mxGeometry relative="1" as="geometry">
            <mxPoint x="1030.4699999999998" y="211.78" as="sourcePoint" />
            <mxPoint x="1029.87" y="461.55999999999995" as="targetPoint" />
          </mxGeometry>
        </mxCell>
        <mxCell id="Pn77C8ZhWg7w9hyfyND1-13" value="" style="whiteSpace=wrap;html=1;aspect=fixed;" parent="Pn77C8ZhWg7w9hyfyND1-89" vertex="1">
          <mxGeometry x="140.2661870503597" y="582.6849315068492" width="211.99999999999997" height="211.99999999999997" as="geometry" />
        </mxCell>
        <mxCell id="Pn77C8ZhWg7w9hyfyND1-86" style="edgeStyle=orthogonalEdgeStyle;rounded=0;orthogonalLoop=1;jettySize=auto;html=1;entryX=1;entryY=0.5;entryDx=0;entryDy=0;fontFamily=Helvetica;fontSize=12;fontColor=default;dashed=1;dashPattern=8 8;" parent="Pn77C8ZhWg7w9hyfyND1-89" target="Pn77C8ZhWg7w9hyfyND1-145" edge="1">
          <mxGeometry relative="1" as="geometry">
            <mxPoint x="823.5971223021581" y="377.5342465753424" as="sourcePoint" />
            <Array as="points">
              <mxPoint x="824" y="745" />
            </Array>
          </mxGeometry>
        </mxCell>
        <mxCell id="Pn77C8ZhWg7w9hyfyND1-88" value="" style="group" parent="Pn77C8ZhWg7w9hyfyND1-89" vertex="1" connectable="0">
          <mxGeometry x="137.2661870503597" y="148.16438356164383" width="610.0719424460431" height="370.4109589041096" as="geometry" />
        </mxCell>
        <mxCell id="Pn77C8ZhWg7w9hyfyND1-11" value="" style="rounded=0;whiteSpace=wrap;html=1;" parent="Pn77C8ZhWg7w9hyfyND1-88" vertex="1">
          <mxGeometry y="56.986301369863014" width="610.0719424460431" height="313.42465753424653" as="geometry" />
        </mxCell>
        <mxCell id="Pn77C8ZhWg7w9hyfyND1-12" value="&lt;b&gt;&lt;font style=&quot;font-size: 20px;&quot;&gt;Flight Computer&lt;/font&gt;&lt;/b&gt;" style="text;html=1;align=left;verticalAlign=middle;whiteSpace=wrap;rounded=0;" parent="Pn77C8ZhWg7w9hyfyND1-88" vertex="1">
          <mxGeometry y="11.84" width="610.0719424460431" height="42.73972602739726" as="geometry" />
        </mxCell>
        <mxCell id="Pn77C8ZhWg7w9hyfyND1-14" value="&lt;font style=&quot;font-size: 20px;&quot;&gt;&lt;b&gt;LeafFC&lt;/b&gt;&lt;/font&gt;" style="rounded=1;whiteSpace=wrap;html=1;" parent="Pn77C8ZhWg7w9hyfyND1-88" vertex="1">
          <mxGeometry x="42.73388489208631" y="164.83575342465753" width="289.78417266187046" height="128.21917808219177" as="geometry" />
        </mxCell>
        <mxCell id="Pn77C8ZhWg7w9hyfyND1-149" style="edgeStyle=orthogonalEdgeStyle;rounded=0;orthogonalLoop=1;jettySize=auto;html=1;exitX=0.5;exitY=0;exitDx=0;exitDy=0;entryX=0.25;entryY=1;entryDx=0;entryDy=0;fontFamily=Helvetica;fontSize=12;fontColor=default;dashed=1;dashPattern=8 8;startArrow=classic;startFill=1;" parent="Pn77C8ZhWg7w9hyfyND1-89" source="Pn77C8ZhWg7w9hyfyND1-145" target="Pn77C8ZhWg7w9hyfyND1-14" edge="1">
          <mxGeometry relative="1" as="geometry" />
        </mxCell>
        <mxCell id="Pn77C8ZhWg7w9hyfyND1-145" value="&lt;span style=&quot;font-size: 20px;&quot;&gt;&lt;b&gt;MAVLINK&lt;/b&gt;&lt;/span&gt;" style="rounded=1;whiteSpace=wrap;html=1;" parent="Pn77C8ZhWg7w9hyfyND1-89" vertex="1">
          <mxGeometry x="191.27" y="720" width="120" height="50" as="geometry" />
        </mxCell>
        <mxCell id="Pn77C8ZhWg7w9hyfyND1-147" value="&lt;b&gt;&lt;font style=&quot;font-size: 20px;&quot;&gt;PX4&lt;/font&gt;&lt;/b&gt;" style="text;html=1;align=left;verticalAlign=middle;whiteSpace=wrap;rounded=0;fontFamily=Helvetica;fontSize=12;fontColor=default;" parent="Pn77C8ZhWg7w9hyfyND1-89" vertex="1">
          <mxGeometry x="137.27" y="552.68" width="212.73" height="30" as="geometry" />
        </mxCell>
        <mxCell id="Pn77C8ZhWg7w9hyfyND1-87" style="edgeStyle=orthogonalEdgeStyle;rounded=0;orthogonalLoop=1;jettySize=auto;html=1;exitX=0;exitY=0.5;exitDx=0;exitDy=0;entryX=1;entryY=0.5;entryDx=0;entryDy=0;fontFamily=Helvetica;fontSize=12;fontColor=default;dashed=1;dashPattern=8 8;startArrow=classic;startFill=1;" parent="Pn77C8ZhWg7w9hyfyND1-89" source="Pn77C8ZhWg7w9hyfyND1-22" target="Pn77C8ZhWg7w9hyfyND1-14" edge="1">
          <mxGeometry relative="1" as="geometry" />
        </mxCell>
        <mxCell id="Pn77C8ZhWg7w9hyfyND1-4" value="&lt;b&gt;&lt;font style=&quot;font-size: 20px;&quot;&gt;Mission Computer&lt;/font&gt;&lt;/b&gt;" style="text;html=1;align=left;verticalAlign=middle;whiteSpace=wrap;rounded=0;" parent="Pn77C8ZhWg7w9hyfyND1-89" vertex="1">
          <mxGeometry x="884.6" y="148.16000000000003" width="1265.4" height="58.28113636363637" as="geometry" />
        </mxCell>
        <mxCell id="Pn77C8ZhWg7w9hyfyND1-115" value="" style="group" parent="1" vertex="1" connectable="0">
          <mxGeometry x="695.9961870503598" y="-1299.9956164383561" width="1280" height="750" as="geometry" />
        </mxCell>
        <mxCell id="Pn77C8ZhWg7w9hyfyND1-116" value="" style="rounded=0;whiteSpace=wrap;html=1;" parent="Pn77C8ZhWg7w9hyfyND1-115" vertex="1">
          <mxGeometry y="56.99" width="1280" height="693.01" as="geometry" />
        </mxCell>
        <mxCell id="Pn77C8ZhWg7w9hyfyND1-117" value="&lt;b&gt;&lt;font style=&quot;font-size: 20px;&quot;&gt;Ground Station Computer&lt;/font&gt;&lt;/b&gt;" style="text;html=1;align=left;verticalAlign=middle;whiteSpace=wrap;rounded=0;" parent="Pn77C8ZhWg7w9hyfyND1-115" vertex="1">
          <mxGeometry width="610.0719424460431" height="42.73972602739726" as="geometry" />
        </mxCell>
        <mxCell id="Pn77C8ZhWg7w9hyfyND1-119" value="" style="group" parent="Pn77C8ZhWg7w9hyfyND1-115" vertex="1" connectable="0">
          <mxGeometry x="40.00381294964032" y="69.99561643835625" width="780" height="650" as="geometry" />
        </mxCell>
        <mxCell id="Pn77C8ZhWg7w9hyfyND1-120" value="" style="rounded=1;whiteSpace=wrap;html=1;strokeColor=default;align=center;verticalAlign=middle;fontFamily=Helvetica;fontSize=12;fontColor=default;fillColor=default;" parent="Pn77C8ZhWg7w9hyfyND1-119" vertex="1">
          <mxGeometry y="35.8" width="780" height="614.2" as="geometry" />
        </mxCell>
        <mxCell id="Pn77C8ZhWg7w9hyfyND1-121" value="&lt;b&gt;&lt;font style=&quot;font-size: 20px;&quot;&gt;LeafMC&lt;/font&gt;&lt;/b&gt;" style="text;html=1;align=left;verticalAlign=middle;whiteSpace=wrap;rounded=0;fontFamily=Helvetica;fontSize=12;fontColor=default;" parent="Pn77C8ZhWg7w9hyfyND1-119" vertex="1">
          <mxGeometry width="439.9999999999999" height="35.79545454545455" as="geometry" />
        </mxCell>
        <mxCell id="Pn77C8ZhWg7w9hyfyND1-135" value="" style="group" parent="Pn77C8ZhWg7w9hyfyND1-119" vertex="1" connectable="0">
          <mxGeometry x="50" y="80" width="690" height="520" as="geometry" />
        </mxCell>
        <mxCell id="Pn77C8ZhWg7w9hyfyND1-136" value="" style="rounded=1;whiteSpace=wrap;html=1;strokeColor=default;align=center;verticalAlign=middle;fontFamily=Helvetica;fontSize=12;fontColor=default;fillColor=default;" parent="Pn77C8ZhWg7w9hyfyND1-135" vertex="1">
          <mxGeometry y="28.639999999999997" width="690" height="491.36000000000007" as="geometry" />
        </mxCell>
        <mxCell id="Pn77C8ZhWg7w9hyfyND1-137" value="&lt;b&gt;&lt;font style=&quot;font-size: 20px;&quot;&gt;Mission Planner&lt;/font&gt;&lt;/b&gt;" style="text;html=1;align=left;verticalAlign=middle;whiteSpace=wrap;rounded=0;fontFamily=Helvetica;fontSize=12;fontColor=default;" parent="Pn77C8ZhWg7w9hyfyND1-135" vertex="1">
          <mxGeometry width="389.23076923076917" height="28.636363636363637" as="geometry" />
        </mxCell>
        <mxCell id="Pn77C8ZhWg7w9hyfyND1-131" value="&lt;font style=&quot;font-size: 20px;&quot;&gt;&lt;b&gt;Waypoint&lt;/b&gt;&lt;/font&gt;" style="rounded=1;whiteSpace=wrap;html=1;" parent="Pn77C8ZhWg7w9hyfyND1-135" vertex="1">
          <mxGeometry x="130.00007194244608" y="62.000136986301186" width="289.78417266187046" height="128.21917808219177" as="geometry" />
        </mxCell>
        <mxCell id="Pn77C8ZhWg7w9hyfyND1-133" value="&lt;span style=&quot;font-size: 20px;&quot;&gt;&lt;b&gt;Dome&lt;/b&gt;&lt;/span&gt;" style="rounded=1;whiteSpace=wrap;html=1;" parent="Pn77C8ZhWg7w9hyfyND1-135" vertex="1">
          <mxGeometry x="60.22007194244611" y="360.0001369863012" width="289.78417266187046" height="128.21917808219177" as="geometry" />
        </mxCell>
        <mxCell id="Pn77C8ZhWg7w9hyfyND1-132" value="&lt;font style=&quot;font-size: 20px;&quot;&gt;&lt;b&gt;Warehouse&lt;/b&gt;&lt;/font&gt;" style="rounded=1;whiteSpace=wrap;html=1;" parent="Pn77C8ZhWg7w9hyfyND1-135" vertex="1">
          <mxGeometry x="340.0000719424461" y="210.210136986301" width="289.78417266187046" height="128.21917808219177" as="geometry" />
        </mxCell>
        <mxCell id="Pn77C8ZhWg7w9hyfyND1-142" value="&lt;b style=&quot;&quot;&gt;&lt;font style=&quot;font-size: 40px;&quot;&gt;SIYI&lt;br&gt;Camera&lt;/font&gt;&lt;/b&gt;" style="whiteSpace=wrap;html=1;aspect=fixed;rounded=0;strokeColor=default;align=center;verticalAlign=middle;fontFamily=Helvetica;fontSize=12;fontColor=default;fillColor=default;" parent="1" vertex="1">
          <mxGeometry x="895" y="670" width="230" height="230" as="geometry" />
        </mxCell>
        <mxCell id="Pn77C8ZhWg7w9hyfyND1-151" style="edgeStyle=orthogonalEdgeStyle;rounded=0;orthogonalLoop=1;jettySize=auto;html=1;exitX=0.25;exitY=1;exitDx=0;exitDy=0;entryX=0.25;entryY=0;entryDx=0;entryDy=0;fontFamily=Helvetica;fontSize=12;fontColor=default;dashed=1;dashPattern=12 12;startArrow=classic;startFill=1;" parent="1" source="Pn77C8ZhWg7w9hyfyND1-120" target="Pn77C8ZhWg7w9hyfyND1-22" edge="1">
          <mxGeometry relative="1" as="geometry" />
        </mxCell>
        <mxCell id="Pn77C8ZhWg7w9hyfyND1-155" style="edgeStyle=orthogonalEdgeStyle;rounded=0;orthogonalLoop=1;jettySize=auto;html=1;exitX=0.5;exitY=1;exitDx=0;exitDy=0;entryX=0.5;entryY=0;entryDx=0;entryDy=0;fontFamily=Helvetica;fontSize=12;fontColor=default;dashed=1;dashPattern=8 8;startArrow=classic;startFill=1;" parent="1" source="Pn77C8ZhWg7w9hyfyND1-24" target="Pn77C8ZhWg7w9hyfyND1-142" edge="1">
          <mxGeometry relative="1" as="geometry">
            <Array as="points" />
          </mxGeometry>
        </mxCell>
      </root>
    </mxGraphModel>
  </diagram>
</mxfile>
